:SAMPLES-PER-SECOND 30
:FULLY-SPECIFIED
:DEGREES
195
root  -36.4643 39.554 29.3749 176.513 -0.323752 178.73
RightUpLeg  -11.6865 -12.6296 -22.4348
RightLeg  21.0819 6.14713 2.42208
RightFoot  -4.89105 -0.476037 7.85096
RightToes  1.33877e-009 0 -3.6325e-017
Spine  14.4345 0.464384 -3.28972
Spine1  9.20642 -0.299602 0.621798
HEad  -18.8737 -14.7584 9.38702
LeftShoulder1  0.0244969 3.42791 -26.0678
LeftArm  -16.6962 9.32274 -30.8896
LeftForeArm  90.9202 -78.4959 -108.91
LeftHand  -0.0402659 1.13326 0.937048
RightShoulder  -0.401328 -4.77274 24.6751
RightArm  -11.3064 -3.63635 42.5054
RightForeArm  109.88 74.7345 133.694
RightHand  -0.0460194 -0.300638 -1.0641
LeftUpLeg  -6.36668 5.72189 7.6932
LeftLeg  17.5729 -2.17976 0.169187
LeftFoot  -6.77564 0.203618 -4.08332
LeftToes  -1.45701e-009 4.75788e-011 -4.21586e-011
196
root  -35.7133 39.4238 29.2602 176.75 -0.25915 178.243
RightUpLeg  -10.3068 -10.3454 -24.3171
RightLeg  17.2683 2.54563 0.599802
RightFoot  -5.34533 -0.348004 5.92904
RightToes  1.33877e-009 0 -3.6325e-017
Spine  14.0061 0.498348 -2.79957
Spine1  9.47522 -0.12741 0.579802
HEad  -18.595 -15.3057 9.37617
LeftShoulder1  -0.00400315 3.51627 -26.1604
LeftArm  -16.4626 9.18164 -31.252
LeftForeArm  91.8739 -78.4318 -109.851
LeftHand  -0.0616343 0.792623 1.46386
RightShoulder  -0.362707 -4.65726 24.4414
RightArm  -11.889 -4.09605 42.2158
RightForeArm  110.339 74.5231 134.462
RightHand  -0.0759127 -1.16319 -1.92003
LeftUpLeg  -6.46033 4.70799 8.3787
LeftLeg  17.5561 -1.43005 0.31646
LeftFoot  -6.46974 0.243107 -4.80385
LeftToes  -1.45701e-009 4.75788e-011 -4.21586e-011
197
root  -34.888 39.258 29.1576 176.905 -0.0523742 177.653
RightUpLeg  -9.08402 -10.2936 -25.3072
RightLeg  13.9458 -0.153618 -1.02528
RightFoot  -6.19746 -0.231433 4.21921
RightToes  1.33877e-009 0 -3.6325e-017
Spine  13.6671 0.456416 -2.13526
Spine1  10.1808 0.114003 -0.0226512
HEad  -18.4223 -15.7955 9.45631
LeftShoulder1  -0.0316293 3.60177 -25.8844
LeftArm  -16.6776 9.04841 -31.6967
LeftForeArm  93.5085 -78.3056 -111.512
LeftHand  -0.0482436 0.943379 1.14426
RightShoulder  -0.438591 -4.8909 24.6976
RightArm  -12.1327 -3.81064 42.2527
RightForeArm  111.4 74.1884 135.707
RightHand  -0.0701917 -0.810004 -1.58725
LeftUpLeg  -6.39868 4.44496 9.23272
LeftLeg  17.4879 -1.46658 0.1669
LeftFoot  -6.26127 0.294253 -5.78383
LeftToes  -1.45701e-009 4.75788e-011 -4.21586e-011
198
root  -34.0131 39.0541 29.0615 177.313 0.0612305 176.771
RightUpLeg  -8.63793 -13.5647 -25.5904
RightLeg  11.8304 -1.44381 -2.25451
RightFoot  -6.7447 -0.138435 2.30462
RightToes  1.33877e-009 0 -3.6325e-017
Spine  13.7449 0.261623 -1.58581
Spine1  9.95948 0.196799 -0.64055
HEad  -18.1194 -15.9674 8.78864
LeftShoulder1  0.00783746 3.47924 -25.2201
LeftArm  -16.8012 9.85815 -32.0509
LeftForeArm  96.0524 -78.0486 -114.377
LeftHand  -0.0734826 1.14071 1.83443
RightShoulder  -0.495234 -5.0417 25.3674
RightArm  -12.5277 -3.18779 41.2568
RightForeArm  113.679 74.2579 135.898
RightHand  -0.00338653 -1.67401 0.121163
LeftUpLeg  -6.53581 3.86159 9.73913
LeftLeg  17.1991 -1.0504 0.253612
LeftFoot  -5.90971 0.370892 -7.06547
LeftToes  -1.45701e-009 4.75788e-011 -4.21586e-011
199
root  -32.987 38.8268 28.9641 177.62 0.188916 176.036
RightUpLeg  -8.35095 -15.7576 -25.1111
RightLeg  10.8699 -2.85248 -2.86514
RightFoot  -7.25971 -0.117588 2.08915
RightToes  1.33877e-009 0 -3.6325e-017
Spine  14 0.240896 -1.4583
Spine1  9.83276 0.0487658 0.163151
HEad  -18.1822 -15.1276 7.53691
LeftShoulder1  0.0143491 3.45869 -25.5396
LeftArm  -17.5819 10.5743 -32.2096
LeftForeArm  98.2422 -77.8744 -116.3
LeftHand  -0.0200442 1.08846 0.367573
RightShoulder  -0.414199 -4.82376 24.4605
RightArm  -12.4946 -2.95554 41.8265
RightForeArm  113.615 73.9901 136.683
RightHand  -0.0363945 -1.81778 -0.880935
LeftUpLeg  -6.49108 4.00015 10.7121
LeftLeg  16.7237 -1.15622 0.164403
LeftFoot  -5.27606 0.472585 -8.30806
LeftToes  -1.45701e-009 4.75788e-011 -4.21586e-011
200
root  -31.8733 38.5581 28.9095 177.957 0.644791 175.53
RightUpLeg  -9.38396 -15.4005 -24.4548
RightLeg  12.249 -2.94577 -2.60692
RightFoot  -5.23448 -0.388991 5.98632
RightToes  1.33877e-009 0 -3.6325e-017
Spine  14.4442 0.0222498 -0.160984
Spine1  9.86831 0.165489 -0.345587
HEad  -18.5029 -14.7143 6.5644
LeftShoulder1  -0.0191827 3.56348 -25.7133
LeftArm  -18.0416 10.7896 -32.1442
LeftForeArm  98.9028 -77.7369 -117.409
LeftHand  -0.0759104 1.01522 1.90397
RightShoulder  -0.387932 -4.75742 23.9834
RightArm  -12.4297 -2.07872 42.6152
RightForeArm  114.384 73.8239 137.296
RightHand  -0.0428906 -1.33004 -1.03505
LeftUpLeg  -6.43131 4.16652 12.1056
LeftLeg  16.1916 -1.12103 0.192457
LeftFoot  -4.56039 0.617906 -9.95292
LeftToes  -1.45701e-009 4.75788e-011 -4.21586e-011
201
root  -30.721 38.2599 28.9127 178.602 1.10198 175.242
RightUpLeg  -12.1434 -15.7568 -23.9173
RightLeg  15.3015 -0.986281 -1.09352
RightFoot  0.371321 -1.06125 10.5247
RightToes  1.33877e-009 0 -3.6325e-017
Spine  14.8567 -0.420127 1.86502
Spine1  10.0449 0.327964 -1.81038
HEad  -19.2221 -14.4123 5.37898
LeftShoulder1  -0.0286443 3.59232 -26.293
LeftArm  -18.7089 10.4627 -31.4485
LeftForeArm  96.9979 -77.8982 -115.744
LeftHand  -0.0641086 1.11167 1.60354
RightShoulder  -0.367503 -4.71075 23.4526
RightArm  -12.1607 -0.321874 43.0502
RightForeArm  112.685 73.7746 137.146
RightHand  -0.0653737 -1.60212 -1.73417
LeftUpLeg  -6.88363 4.5304 13.6996
LeftLeg  15.8183 -1.16637 0.267937
LeftFoot  -3.62621 0.791894 -11.3751
LeftToes  -1.45701e-009 4.75788e-011 -4.21586e-011
202
root  -29.5665 38.067 28.9237 179.242 1.29909 175.655
RightUpLeg  -15.0928 -18.4529 -21.8255
RightLeg  19.1797 1.71778 0.517752
RightFoot  2.7299 -1.27629 10.4641
RightToes  1.33877e-009 0 -3.6325e-017
Spine  16.1017 -1.12882 4.53943
Spine1  9.06552 0.253314 -3.14459
HEad  -19.3787 -13.9188 4.12377
LeftShoulder1  0.0345467 3.39805 -26.4461
LeftArm  -19.4631 11.7674 -31.9429
LeftForeArm  97.4563 -77.8884 -115.956
LeftHand  -0.0511954 0.683203 1.18391
RightShoulder  -0.30008 -4.51597 22.4655
RightArm  -12.3033 0.976135 43.4109
RightForeArm  114.553 73.8843 137.154
RightHand  -0.0325807 -1.77041 -0.760545
LeftUpLeg  -7.20229 5.03804 15.784
LeftLeg  14.8544 -1.05723 0.642838
LeftFoot  -1.8344 1.02873 -12.1771
LeftToes  -1.45701e-009 4.75788e-011 -4.21586e-011
